# This file uses centimeters as units for non-parametric coordinates.

v 140.681625 21.215626 -7.716538
v 84.881630 21.215626 -7.716538
v 84.881630 21.215626 25.763462
v 140.681625 21.215626 25.763462
v 140.681625 0.000000 25.763462
v 140.681625 0.000000 -7.716538
v 140.681625 21.215626 -7.716538
v 140.681625 21.215626 25.763462
v 140.681625 0.000000 25.763462
v 140.215927 0.428623 25.763462
v 84.881630 0.000000 25.763462
v 140.681625 21.215626 25.763462
v 140.215927 20.714249 25.763462
v 85.404045 20.714249 25.763462
v 85.404045 0.428623 25.763462
v 84.881630 21.215626 25.763462
v 140.681625 0.000000 -7.716538
v 84.881630 0.000000 -7.716538
v 84.881630 21.215626 -7.716538
v 140.681625 21.215626 -7.716538
v 84.881630 0.000000 -7.716538
v 84.881630 0.000000 25.763462
v 84.881630 21.215626 25.763462
v 84.881630 21.215626 -7.716538
v 84.881630 0.000000 -7.716538
v 140.681625 0.000000 -7.716538
v 140.681625 0.000000 25.763462
v 84.881630 0.000000 25.763462
vt 60.000000 36.000000
vt 0.000000 36.000000
vt 0.000000 0.000000
vt 60.000000 0.000000
vt 36.000000 0.000000
vt 36.000000 22.812500
vt 0.000000 22.812500
vt 59.499245 0.460885
vt 60.000000 22.812500
vt 59.499245 22.273386
vt 0.561743 22.273386
vt 0.561743 0.460885
vt -60.000000 0.000000
vt -60.000000 22.812500
vt -36.000000 0.000000
vt -36.000000 22.812500
vt -60.000000 36.000000
vt 0.000000 0.000000
vt 60.000000 0.000000
vt 0.000000 0.000000
vt 60.000000 0.000000
vt 0.000000 0.000000
vt 0.000000 22.812500
vt 0.000000 0.000000
vt 0.000000 22.812500
vt 0.000000 22.812500
vt 0.000000 0.000000
vt 0.000000 22.812500
vt 0.000000 0.000000
vt 0.000000 22.812500
vt 0.000000 36.000000
vt -60.000000 0.000000
vt 0.000000 0.000000
vn 0.000000 1.000000 0.000000
vn 0.000000 1.000000 0.000000
vn 0.000000 1.000000 0.000000
vn 0.000000 1.000000 0.000000
vn 1.000000 0.000000 0.000000
vn 1.000000 0.000000 0.000000
vn 1.000000 0.000000 0.000000
vn 1.000000 0.000000 0.000000
vn 0.000000 0.000000 1.000000
vn 0.000000 0.000000 1.000000
vn 0.000000 0.000000 1.000000
vn 0.000000 0.000000 1.000000
vn 0.000000 0.000000 1.000000
vn 0.000000 0.000000 1.000000
vn 0.000000 0.000000 1.000000
vn 0.000000 0.000000 1.000000
vn 0.000000 0.000000 -1.000000
vn 0.000000 0.000000 -1.000000
vn 0.000000 0.000000 -1.000000
vn 0.000000 0.000000 -1.000000
vn -1.000000 0.000000 0.000000
vn -1.000000 0.000000 0.000000
vn -1.000000 0.000000 0.000000
vn -1.000000 0.000000 0.000000
vn 0.000000 -1.000000 0.000000
vn 0.000000 -1.000000 0.000000
vn 0.000000 -1.000000 0.000000
vn 0.000000 -1.000000 0.000000
f 1/1/1 2/2/2 3/3/3 4/4/4
f 5/18/5 6/5/6 7/6/7 8/7/8
f 9/19/9 10/8/10 11/20/11
f 10/8/10 9/21/9 12/9/12
f 10/8/10 12/9/12 13/10/13
f 13/10/13 12/9/12 14/11/14
f 11/22/11 15/12/15 16/23/16
f 15/12/15 11/24/11 10/8/10
f 16/25/16 15/12/15 14/11/14
f 16/26/16 14/11/14 12/9/12
f 17/13/17 18/27/18 19/28/19 20/14/20
f 21/15/21 22/29/22 23/30/23 24/16/24
f 25/31/25 26/17/26 27/32/27 28/33/28
f 15/12/15 10/8/10 13/10/13 14/11/14
v 196.481628 21.215626 -7.716538
v 140.681625 21.215626 -7.716538
v 140.681625 21.215626 25.763462
v 196.481628 21.215626 25.763462
v 196.481628 0.000000 25.763462
v 196.481628 0.000000 -7.716538
v 196.481628 21.215626 -7.716538
v 196.481628 21.215626 25.763462
v 196.481628 0.000000 25.763462
v 196.015930 0.428623 25.763462
v 140.681625 0.000000 25.763462
v 196.481628 21.215626 25.763462
v 196.015930 20.714249 25.763462
v 141.204056 20.714249 25.763462
v 141.204056 0.428623 25.763462
v 140.681625 21.215626 25.763462
v 196.481628 0.000000 -7.716538
v 140.681625 0.000000 -7.716538
v 140.681625 21.215626 -7.716538
v 196.481628 21.215626 -7.716538
v 140.681625 0.000000 -7.716538
v 140.681625 0.000000 25.763462
v 140.681625 21.215626 25.763462
v 140.681625 21.215626 -7.716538
v 140.681625 0.000000 -7.716538
v 196.481628 0.000000 -7.716538
v 196.481628 0.000000 25.763462
v 140.681625 0.000000 25.763462
vt 60.000000 36.000000
vt 0.000000 36.000000
vt 0.000000 0.000000
vt 60.000000 0.000000
vt 36.000000 0.000000
vt 36.000000 22.812500
vt 0.000000 22.812500
vt 59.499245 0.460885
vt 60.000000 22.812500
vt 59.499245 22.273386
vt 0.561743 22.273386
vt 0.561743 0.460885
vt -60.000000 0.000000
vt -60.000000 22.812500
vt -36.000000 0.000000
vt -36.000000 22.812500
vt -60.000000 36.000000
vt 0.000000 0.000000
vt 60.000000 0.000000
vt 0.000000 0.000000
vt 60.000000 0.000000
vt 0.000000 0.000000
vt 0.000000 22.812500
vt 0.000000 0.000000
vt 0.000000 22.812500
vt 0.000000 22.812500
vt 0.000000 0.000000
vt 0.000000 22.812500
vt 0.000000 0.000000
vt 0.000000 22.812500
vt 0.000000 36.000000
vt -60.000000 0.000000
vt 0.000000 0.000000
vn 0.000000 1.000000 0.000000
vn 0.000000 1.000000 0.000000
vn 0.000000 1.000000 0.000000
vn 0.000000 1.000000 0.000000
vn 1.000000 0.000000 0.000000
vn 1.000000 0.000000 0.000000
vn 1.000000 0.000000 0.000000
vn 1.000000 0.000000 0.000000
vn 0.000000 0.000000 1.000000
vn 0.000000 0.000000 1.000000
vn 0.000000 0.000000 1.000000
vn 0.000000 0.000000 1.000000
vn 0.000000 0.000000 1.000000
vn 0.000000 0.000000 1.000000
vn 0.000000 0.000000 1.000000
vn 0.000000 0.000000 1.000000
vn 0.000000 0.000000 -1.000000
vn 0.000000 0.000000 -1.000000
vn 0.000000 0.000000 -1.000000
vn 0.000000 0.000000 -1.000000
vn -1.000000 0.000000 0.000000
vn -1.000000 0.000000 0.000000
vn -1.000000 0.000000 0.000000
vn -1.000000 0.000000 0.000000
vn 0.000000 -1.000000 0.000000
vn 0.000000 -1.000000 0.000000
vn 0.000000 -1.000000 0.000000
vn 0.000000 -1.000000 0.000000
f 29/34/29 30/35/30 31/36/31 32/37/32
f 33/51/33 34/38/34 35/39/35 36/40/36
f 37/52/37 38/41/38 39/53/39
f 38/41/38 37/54/37 40/42/40
f 38/41/38 40/42/40 41/43/41
f 41/43/41 40/42/40 42/44/42
f 39/55/39 43/45/43 44/56/44
f 43/45/43 39/57/39 38/41/38
f 44/58/44 43/45/43 42/44/42
f 44/59/44 42/44/42 40/42/40
f 45/46/45 46/60/46 47/61/47 48/47/48
f 49/48/49 50/62/50 51/63/51 52/49/52
f 53/64/53 54/50/54 55/65/55 56/66/56
f 43/45/43 38/41/38 41/43/41 42/44/42
v 196.481628 42.431252 -7.716538
v 140.681625 42.431252 -7.716538
v 140.681625 42.431252 25.763462
v 196.481628 42.431252 25.763462
v 196.481628 21.215626 25.763462
v 196.481628 21.215626 -7.716538
v 196.481628 42.431252 -7.716538
v 196.481628 42.431252 25.763462
v 196.481628 21.215626 25.763462
v 196.015930 21.644249 25.763462
v 140.681625 21.215626 25.763462
v 196.481628 42.431252 25.763462
v 196.015930 41.929874 25.763462
v 141.204056 41.929874 25.763462
v 141.204056 21.644249 25.763462
v 140.681625 42.431252 25.763462
v 196.481628 21.215626 -7.716538
v 140.681625 21.215626 -7.716538
v 140.681625 42.431252 -7.716538
v 196.481628 42.431252 -7.716538
v 140.681625 21.215626 -7.716538
v 140.681625 21.215626 25.763462
v 140.681625 42.431252 25.763462
v 140.681625 42.431252 -7.716538
v 140.681625 21.215626 -7.716538
v 196.481628 21.215626 -7.716538
v 196.481628 21.215626 25.763462
v 140.681625 21.215626 25.763462
vt 60.000000 36.000000
vt 0.000000 36.000000
vt 0.000000 0.000000
vt 60.000000 0.000000
vt 36.000000 0.000000
vt 36.000000 22.812500
vt 0.000000 22.812500
vt 59.499245 0.460885
vt 60.000000 22.812500
vt 59.499245 22.273386
vt 0.561743 22.273386
vt 0.561743 0.460885
vt -60.000000 0.000000
vt -60.000000 22.812500
vt -36.000000 0.000000
vt -36.000000 22.812500
vt -60.000000 36.000000
vt 0.000000 0.000000
vt 60.000000 0.000000
vt 0.000000 0.000000
vt 60.000000 0.000000
vt 0.000000 0.000000
vt 0.000000 22.812500
vt 0.000000 0.000000
vt 0.000000 22.812500
vt 0.000000 22.812500
vt 0.000000 0.000000
vt 0.000000 22.812500
vt 0.000000 0.000000
vt 0.000000 22.812500
vt 0.000000 36.000000
vt -60.000000 0.000000
vt 0.000000 0.000000
vn 0.000000 1.000000 0.000000
vn 0.000000 1.000000 0.000000
vn 0.000000 1.000000 0.000000
vn 0.000000 1.000000 0.000000
vn 1.000000 0.000000 0.000000
vn 1.000000 0.000000 0.000000
vn 1.000000 0.000000 0.000000
vn 1.000000 0.000000 0.000000
vn 0.000000 0.000000 1.000000
vn 0.000000 0.000000 1.000000
vn 0.000000 0.000000 1.000000
vn 0.000000 0.000000 1.000000
vn 0.000000 0.000000 1.000000
vn 0.000000 0.000000 1.000000
vn 0.000000 0.000000 1.000000
vn 0.000000 0.000000 1.000000
vn 0.000000 0.000000 -1.000000
vn 0.000000 0.000000 -1.000000
vn 0.000000 0.000000 -1.000000
vn 0.000000 0.000000 -1.000000
vn -1.000000 0.000000 0.000000
vn -1.000000 0.000000 0.000000
vn -1.000000 0.000000 0.000000
vn -1.000000 0.000000 0.000000
vn 0.000000 -1.000000 0.000000
vn 0.000000 -1.000000 0.000000
vn 0.000000 -1.000000 0.000000
vn 0.000000 -1.000000 0.000000
f 57/67/57 58/68/58 59/69/59 60/70/60
f 61/84/61 62/71/62 63/72/63 64/73/64
f 65/85/65 66/74/66 67/86/67
f 66/74/66 65/87/65 68/75/68
f 66/74/66 68/75/68 69/76/69
f 69/76/69 68/75/68 70/77/70
f 67/88/67 71/78/71 72/89/72
f 71/78/71 67/90/67 66/74/66
f 72/91/72 71/78/71 70/77/70
f 72/92/72 70/77/70 68/75/68
f 73/79/73 74/93/74 75/94/75 76/80/76
f 77/81/77 78/95/78 79/96/79 80/82/80
f 81/97/81 82/83/82 83/98/83 84/99/84
f 71/78/71 66/74/66 69/76/69 70/77/70
v 140.681625 42.431252 -7.716538
v 84.881630 42.431252 -7.716538
v 84.881630 42.431252 25.763462
v 140.681625 42.431252 25.763462
v 140.681625 21.215626 25.763462
v 140.681625 21.215626 -7.716538
v 140.681625 42.431252 -7.716538
v 140.681625 42.431252 25.763462
v 140.681625 21.215626 25.763462
v 140.215927 21.644249 25.763462
v 84.881630 21.215626 25.763462
v 140.681625 42.431252 25.763462
v 140.215927 41.929874 25.763462
v 85.404045 41.929874 25.763462
v 85.404045 21.644249 25.763462
v 84.881630 42.431252 25.763462
v 140.681625 21.215626 -7.716538
v 84.881630 21.215626 -7.716538
v 84.881630 42.431252 -7.716538
v 140.681625 42.431252 -7.716538
v 84.881630 21.215626 -7.716538
v 84.881630 21.215626 25.763462
v 84.881630 42.431252 25.763462
v 84.881630 42.431252 -7.716538
v 84.881630 21.215626 -7.716538
v 140.681625 21.215626 -7.716538
v 140.681625 21.215626 25.763462
v 84.881630 21.215626 25.763462
vt 60.000000 36.000000
vt 0.000000 36.000000
vt 0.000000 0.000000
vt 60.000000 0.000000
vt 36.000000 0.000000
vt 36.000000 22.812500
vt 0.000000 22.812500
vt 59.499245 0.460885
vt 60.000000 22.812500
vt 59.499245 22.273386
vt 0.561743 22.273386
vt 0.561743 0.460885
vt -60.000000 0.000000
vt -60.000000 22.812500
vt -36.000000 0.000000
vt -36.000000 22.812500
vt -60.000000 36.000000
vt 0.000000 0.000000
vt 60.000000 0.000000
vt 0.000000 0.000000
vt 60.000000 0.000000
vt 0.000000 0.000000
vt 0.000000 22.812500
vt 0.000000 0.000000
vt 0.000000 22.812500
vt 0.000000 22.812500
vt 0.000000 0.000000
vt 0.000000 22.812500
vt 0.000000 0.000000
vt 0.000000 22.812500
vt 0.000000 36.000000
vt -60.000000 0.000000
vt 0.000000 0.000000
vn 0.000000 1.000000 0.000000
vn 0.000000 1.000000 0.000000
vn 0.000000 1.000000 0.000000
vn 0.000000 1.000000 0.000000
vn 1.000000 0.000000 0.000000
vn 1.000000 0.000000 0.000000
vn 1.000000 0.000000 0.000000
vn 1.000000 0.000000 0.000000
vn 0.000000 0.000000 1.000000
vn 0.000000 0.000000 1.000000
vn 0.000000 0.000000 1.000000
vn 0.000000 0.000000 1.000000
vn 0.000000 0.000000 1.000000
vn 0.000000 0.000000 1.000000
vn 0.000000 0.000000 1.000000
vn 0.000000 0.000000 1.000000
vn 0.000000 0.000000 -1.000000
vn 0.000000 0.000000 -1.000000
vn 0.000000 0.000000 -1.000000
vn 0.000000 0.000000 -1.000000
vn -1.000000 0.000000 0.000000
vn -1.000000 0.000000 0.000000
vn -1.000000 0.000000 0.000000
vn -1.000000 0.000000 0.000000
vn 0.000000 -1.000000 0.000000
vn 0.000000 -1.000000 0.000000
vn 0.000000 -1.000000 0.000000
vn 0.000000 -1.000000 0.000000
f 85/100/85 86/101/86 87/102/87 88/103/88
f 89/117/89 90/104/90 91/105/91 92/106/92
f 93/118/93 94/107/94 95/119/95
f 94/107/94 93/120/93 96/108/96
f 94/107/94 96/108/96 97/109/97
f 97/109/97 96/108/96 98/110/98
f 95/121/95 99/111/99 100/122/100
f 99/111/99 95/123/95 94/107/94
f 100/124/100 99/111/99 98/110/98
f 100/125/100 98/110/98 96/108/96
f 101/112/101 102/126/102 103/127/103 104/113/104
f 105/114/105 106/128/106 107/129/107 108/115/108
f 109/130/109 110/116/110 111/131/111 112/132/112
f 99/111/99 94/107/94 97/109/97 98/110/98
